<svg width="150" height="143" viewBox="0 0 150 143" fill="none" xmlns="http://www.w3.org/2000/svg">
<path d="M98.2272 94.5088C85.1695 107.566 70.7268 116.714 57.9599 120.97C45.1455 125.241 34.2606 124.521 28.0086 118.269C21.7566 112.017 21.0357 101.132 25.3072 88.3172C29.5628 75.5503 38.7107 61.1076 51.7683 48.0499C64.826 34.9922 79.2688 25.8444 92.0356 21.5887C104.85 17.3173 115.735 18.0381 121.987 24.2901C128.239 30.5421 128.96 41.427 124.688 54.2414C120.433 67.0083 111.285 81.4511 98.2272 94.5088Z" stroke="url(#paint0_linear_42_149)" stroke-width="1.5"/>
<path d="M91.4257 99.7293C75.4333 108.962 59.1151 114.061 45.6818 114.867C32.1984 115.676 21.871 112.163 17.4502 104.506C13.0294 96.8485 15.1503 86.1479 22.5928 74.8756C30.0078 63.6452 42.5819 52.0622 58.5743 42.829C74.5666 33.5959 90.8849 28.4978 104.318 27.6915C117.802 26.8822 128.129 30.3957 132.55 38.0528C136.971 45.7099 134.85 56.4104 127.407 67.6827C119.992 78.9131 107.418 90.4961 91.4257 99.7293Z" stroke="url(#paint1_linear_42_149)" stroke-width="1.5"/>
<path d="M53.336 78H51.512L46.024 69.696V78H44.2V66.864H46.024L51.512 75.152V66.864H53.336V78ZM63.8113 73.376C63.8113 73.7067 63.7899 74.0053 63.7473 74.272H57.0113C57.0646 74.976 57.3259 75.5413 57.7953 75.968C58.2646 76.3947 58.8406 76.608 59.5233 76.608C60.5046 76.608 61.1979 76.1973 61.6033 75.376H63.5712C63.3046 76.1867 62.8193 76.8533 62.1153 77.376C61.4219 77.888 60.5579 78.144 59.5233 78.144C58.6806 78.144 57.9233 77.9573 57.2513 77.584C56.5899 77.2 56.0673 76.6667 55.6833 75.984C55.3099 75.2907 55.1233 74.4907 55.1233 73.584C55.1233 72.6773 55.3046 71.8827 55.6673 71.2C56.0406 70.5067 56.5579 69.9733 57.2193 69.6C57.8913 69.2267 58.6593 69.04 59.5233 69.04C60.3553 69.04 61.0966 69.2213 61.7473 69.584C62.3979 69.9467 62.9046 70.4587 63.2673 71.12C63.6299 71.7707 63.8113 72.5227 63.8113 73.376ZM61.9073 72.8C61.8966 72.128 61.6566 71.5893 61.1873 71.184C60.7179 70.7787 60.1366 70.576 59.4433 70.576C58.8139 70.576 58.2753 70.7787 57.8273 71.184C57.3793 71.5787 57.1126 72.1173 57.0273 72.8H61.9073ZM69.3823 73.536L72.2303 78H70.1663L68.2623 75.008L66.4703 78H64.5663L67.4143 73.664L64.5663 69.184H66.6303L68.5343 72.176L70.3263 69.184H72.2303L69.3823 73.536ZM75.7186 70.672V75.552C75.7186 75.8827 75.7933 76.1227 75.9426 76.272C76.1026 76.4107 76.3693 76.48 76.7426 76.48H77.8626V78H76.4226C75.6013 78 74.972 77.808 74.5346 77.424C74.0973 77.04 73.8786 76.416 73.8786 75.552V70.672H72.8386V69.184H73.8786V66.992H75.7186V69.184H77.8626V70.672H75.7186Z" fill="url(#paint2_linear_42_149)"/>
<path d="M99.172 72L93.808 66.636L95.222 65.222L103 73L95.222 80.778L93.808 79.364L99.172 74H87V72H99.172Z" fill="url(#paint3_linear_42_149)"/>
<defs>
<linearGradient id="paint0_linear_42_149" x1="51.238" y1="47.5195" x2="101.479" y2="80.875" gradientUnits="userSpaceOnUse">
<stop stop-color="#FF62B7"/>
<stop offset="1" stop-color="#9F53FF"/>
</linearGradient>
<linearGradient id="paint1_linear_42_149" x1="58.1993" y1="42.1795" x2="98.0957" y2="87.4018" gradientUnits="userSpaceOnUse">
<stop stop-color="#FF62B7"/>
<stop offset="1" stop-color="#9F53FF"/>
</linearGradient>
<linearGradient id="paint2_linear_42_149" x1="43" y1="72" x2="71.0999" y2="59.264" gradientUnits="userSpaceOnUse">
<stop stop-color="#FF52AF"/>
<stop offset="1" stop-color="#9F53FF"/>
</linearGradient>
<linearGradient id="paint3_linear_42_149" x1="87" y1="73" x2="100.728" y2="68.7334" gradientUnits="userSpaceOnUse">
<stop stop-color="#FF52AF"/>
<stop offset="1" stop-color="#9F53FF"/>
</linearGradient>
</defs>
</svg>
